<?xml version="1.0" standalone="no"?>
<!DOCTYPE svg PUBLIC "-//W3C//DTD SVG 20010904//EN"
 "http://www.w3.org/TR/2001/REC-SVG-20010904/DTD/svg10.dtd">
<svg version="1.0" xmlns="http://www.w3.org/2000/svg"
 width="1080.000000pt" height="1080.000000pt" viewBox="0 0 1080.000000 1080.000000"
 preserveAspectRatio="xMidYMid meet">
<metadata>
Created by potrace 1.14, written by Peter Selinger 2001-2017
</metadata>
<g transform="translate(0.000000,1080.000000) scale(0.100000,-0.100000)"
fill="#000000" stroke="none">
<path d="M5355 10788 c-11 -6 -22 -14 -25 -18 -3 -3 -30 -19 -60 -34 -30 -16
-57 -31 -60 -35 -6 -7 -73 -46 -115 -67 -16 -8 -43 -23 -60 -34 -16 -10 -52
-31 -80 -45 -27 -15 -55 -31 -61 -36 -17 -14 -117 -69 -136 -75 -10 -4 -18
-10 -18 -15 0 -5 -5 -9 -11 -9 -6 0 -31 -13 -56 -30 -24 -16 -46 -30 -49 -30
-6 0 -167 -92 -174 -100 -3 -3 -24 -14 -47 -25 -24 -11 -43 -23 -43 -27 0 -5
-6 -8 -14 -8 -7 0 -19 -7 -26 -15 -7 -9 -15 -13 -18 -11 -3 3 -17 -3 -31 -13
-23 -16 -286 -169 -401 -233 -25 -14 -91 -53 -148 -87 -57 -33 -108 -61 -113
-61 -5 0 -9 -4 -9 -10 0 -5 -5 -10 -10 -10 -14 0 -174 -92 -178 -102 -2 -4 -8
-8 -13 -8 -6 0 -58 -28 -117 -63 -59 -35 -114 -66 -122 -70 -8 -4 -37 -21 -65
-37 -27 -17 -72 -42 -100 -56 -27 -15 -52 -29 -55 -33 -3 -3 -25 -17 -50 -30
-25 -14 -48 -29 -52 -35 -4 -6 -8 -7 -8 -3 0 4 -17 -4 -37 -18 -21 -14 -43
-25 -50 -25 -7 0 -13 -4 -13 -8 0 -5 -22 -19 -50 -32 -27 -13 -50 -27 -50 -32
0 -4 -5 -8 -11 -8 -6 0 -37 -15 -68 -34 -31 -19 -72 -43 -91 -54 -19 -11 -105
-60 -190 -109 -85 -50 -171 -99 -190 -109 -19 -10 -37 -21 -40 -24 -3 -3 -14
-10 -25 -16 -51 -28 -119 -66 -224 -128 -62 -36 -116 -66 -118 -66 -2 0 -24
-14 -49 -30 -24 -17 -44 -28 -44 -24 0 3 -15 -5 -34 -20 -19 -14 -45 -30 -58
-36 -43 -19 -151 -85 -155 -95 -1 -6 59 -46 135 -89 75 -44 181 -106 234 -138
54 -32 102 -58 108 -58 5 0 10 -4 10 -9 0 -5 8 -11 18 -14 19 -7 72 -37 178
-103 40 -24 77 -44 83 -44 6 0 11 -4 11 -9 0 -5 8 -11 18 -14 9 -3 40 -20 67
-37 28 -17 62 -36 78 -42 15 -7 27 -16 27 -20 0 -4 5 -8 11 -8 6 0 30 -13 54
-30 24 -16 46 -30 49 -30 3 0 51 -27 107 -60 55 -33 103 -60 106 -60 3 0 17
-8 31 -19 24 -16 46 -30 127 -75 96 -54 136 -79 141 -87 3 -5 10 -7 15 -4 5 4
9 1 9 -4 0 -6 5 -11 10 -11 6 0 29 -12 53 -27 37 -24 62 -38 132 -77 34 -19
218 -128 256 -152 20 -12 40 -19 45 -15 5 5 36 23 69 40 32 18 71 41 86 52 14
10 29 16 33 12 3 -3 6 -2 6 4 0 6 8 14 18 17 9 3 26 12 37 19 11 7 56 33 100
58 44 25 146 84 227 131 80 47 152 88 160 92 7 3 31 17 53 31 22 14 52 30 68
36 15 6 27 15 27 20 0 5 4 9 9 9 5 0 30 12 56 28 26 15 64 36 84 48 229 131
346 199 351 204 3 3 30 18 60 34 30 17 75 42 100 57 25 15 72 42 105 60 33 17
62 34 65 38 3 3 34 21 70 40 36 19 67 37 70 40 13 16 89 50 94 43 2 -4 24 -18
48 -30 24 -13 66 -37 93 -53 28 -16 57 -33 65 -36 8 -4 17 -9 20 -13 3 -4 37
-24 75 -45 39 -20 75 -41 80 -45 6 -4 30 -19 55 -32 65 -36 171 -98 200 -116
14 -9 27 -17 30 -17 11 -2 120 -68 126 -76 3 -5 10 -7 15 -4 5 4 9 1 9 -4 0
-6 4 -11 10 -11 5 0 38 -17 72 -38 35 -21 70 -41 78 -45 8 -4 33 -18 55 -32
22 -14 52 -31 68 -37 15 -7 27 -15 27 -19 0 -4 15 -12 33 -19 17 -8 39 -19 47
-25 8 -7 35 -23 60 -36 25 -13 51 -29 58 -36 7 -6 28 -17 47 -24 19 -7 35 -17
35 -21 0 -4 7 -8 15 -8 8 0 15 -4 15 -10 0 -5 4 -10 10 -10 5 0 47 -22 94 -50
47 -27 88 -50 91 -50 4 0 26 -13 50 -30 24 -16 46 -30 50 -30 3 0 30 -16 60
-35 30 -19 55 -31 55 -27 0 4 4 3 8 -3 4 -5 22 -18 40 -28 31 -18 33 -18 60 1
15 10 34 22 42 25 8 4 33 18 55 32 22 14 47 28 55 32 13 6 141 79 180 103 81
49 193 110 200 110 6 0 10 5 10 10 0 6 7 10 15 10 8 0 15 3 15 8 0 4 10 12 23
17 34 16 111 59 117 66 3 3 21 13 40 23 19 9 60 32 90 51 30 19 61 34 68 35 6
0 12 4 12 8 0 5 23 19 50 32 28 13 50 27 50 32 0 4 4 8 10 8 5 0 136 73 290
163 154 89 288 167 298 172 9 6 49 28 87 50 39 22 79 45 90 52 11 7 27 16 35
20 8 4 60 34 115 66 55 33 113 65 129 72 l28 12 -120 72 c-67 39 -125 71 -131
71 -5 0 -11 3 -13 8 -4 9 -57 41 -80 49 -10 3 -18 9 -18 14 0 5 -5 9 -11 9 -6
0 -39 17 -73 37 -33 21 -63 38 -66 38 -3 0 -16 8 -30 17 -32 20 -173 102 -270
156 -25 14 -62 36 -82 49 -21 12 -40 23 -43 23 -4 0 -54 29 -130 77 -11 7 -33
19 -50 28 -16 8 -43 23 -60 34 -16 10 -46 27 -65 38 -19 11 -111 64 -205 118
-93 54 -186 107 -205 118 -34 19 -129 75 -180 106 -14 8 -43 25 -65 37 -49 26
-88 49 -185 106 -41 24 -82 47 -90 51 -8 4 -33 18 -55 32 -22 14 -56 32 -75
42 -19 9 -37 20 -40 23 -6 7 -187 112 -258 150 -26 14 -49 27 -52 30 -3 3 -14
10 -25 16 -48 26 -70 39 -75 44 -3 3 -16 11 -30 18 -14 6 -52 28 -85 47 -33
20 -75 43 -92 52 -18 9 -33 20 -33 25 0 4 -9 8 -19 8 -11 0 -21 4 -23 8 -1 4
-30 23 -63 41 -33 19 -76 43 -95 54 -19 10 -72 41 -118 68 -45 27 -87 49 -92
49 -6 0 -10 4 -10 8 0 4 -12 13 -27 20 -16 6 -41 20 -58 30 -29 19 -63 38
-142 83 -63 35 -277 159 -293 170 -8 5 -26 15 -40 21 -14 7 -40 23 -59 35 -39
26 -39 26 -66 11z"/>
<path d="M1060 5252 l0 -2758 37 -21 c84 -46 208 -117 213 -123 3 -3 21 -13
40 -24 19 -10 50 -27 68 -37 17 -11 49 -29 70 -41 20 -12 48 -28 62 -36 14 -7
43 -25 65 -38 22 -13 59 -33 83 -45 23 -12 42 -25 42 -30 0 -5 9 -9 20 -9 11
0 20 -4 20 -10 0 -5 4 -10 9 -10 5 0 55 -27 111 -60 56 -33 106 -60 111 -60 5
0 9 -4 9 -10 0 -5 9 -10 20 -10 11 0 20 -3 20 -8 0 -4 34 -25 75 -47 41 -22
75 -43 75 -47 0 -5 5 -8 11 -8 6 0 52 -24 102 -54 51 -29 109 -63 129 -75 21
-11 55 -31 75 -43 21 -12 49 -28 63 -35 14 -8 39 -23 55 -33 17 -11 39 -24 51
-29 12 -5 46 -26 77 -45 31 -20 59 -36 62 -36 3 0 22 -11 43 -23 20 -13 57
-35 82 -49 25 -14 101 -58 170 -98 69 -40 150 -86 180 -103 30 -16 67 -38 82
-49 14 -10 28 -18 31 -18 2 0 66 -36 141 -80 75 -44 141 -80 146 -80 6 0 10
-4 10 -9 0 -5 15 -15 33 -22 29 -12 88 -47 112 -67 6 -4 12 -8 15 -8 10 0 145
-78 148 -86 2 -4 7 -8 12 -8 4 0 64 -32 132 -71 67 -39 138 -80 156 -90 17
-11 47 -27 65 -37 17 -11 58 -34 90 -53 121 -71 152 -89 167 -95 8 -4 26 -15
40 -24 14 -10 45 -28 70 -42 64 -36 108 -61 160 -92 25 -15 53 -29 63 -33 9
-3 17 -9 17 -14 0 -5 6 -9 13 -9 6 0 40 -18 75 -40 34 -22 67 -40 72 -40 5 0
15 -6 22 -13 8 -6 38 -25 68 -41 30 -16 63 -36 73 -44 9 -8 17 -11 17 -7 0 4
8 1 18 -8 17 -15 22 -14 76 14 31 17 78 43 104 60 26 16 58 34 72 41 14 7 49
27 78 45 29 18 56 33 61 33 5 0 11 3 13 8 2 4 21 16 43 27 22 11 42 22 45 25
3 4 21 14 40 23 19 10 71 40 115 67 44 27 84 49 88 50 5 0 22 10 39 21 16 12
48 31 71 44 60 32 91 49 97 55 5 5 24 16 88 51 20 11 51 28 67 38 75 45 208
121 212 121 3 0 11 7 20 15 8 8 19 13 24 10 5 -4 9 -1 9 4 0 6 7 11 15 11 8 0
15 4 15 8 0 4 15 15 33 23 17 9 115 64 216 122 102 59 188 107 193 107 4 0 8
5 8 10 0 6 4 10 10 10 8 0 137 71 180 100 8 6 24 14 35 20 11 5 43 23 70 40
28 17 58 33 68 37 9 3 17 9 17 13 0 4 11 11 25 14 14 4 25 11 25 16 0 6 8 10
17 10 9 0 24 6 32 14 9 7 112 68 229 135 117 67 226 130 242 139 86 51 141 82
147 83 5 1 27 14 50 30 23 16 45 29 48 29 4 0 27 14 52 30 24 17 46 30 49 30
2 0 39 21 82 46 42 25 84 49 92 54 8 5 56 32 105 60 50 28 97 55 105 60 15 8
333 193 414 239 22 13 68 39 101 58 33 20 80 47 105 61 25 14 81 46 124 72
l79 47 1 1226 c1 675 -2 1227 -6 1227 -4 0 -24 -10 -45 -22 -21 -12 -54 -30
-73 -40 -19 -10 -55 -31 -80 -46 -25 -16 -65 -39 -90 -52 -25 -14 -52 -29 -60
-36 -8 -6 -40 -24 -70 -40 -30 -16 -57 -31 -60 -34 -6 -6 -227 -133 -250 -143
-8 -4 -27 -15 -42 -25 -57 -36 -279 -162 -288 -162 -4 0 -10 -4 -12 -8 -1 -4
-34 -26 -73 -48 -38 -21 -90 -51 -115 -66 -25 -15 -52 -31 -60 -35 -8 -4 -48
-26 -88 -50 -40 -24 -77 -43 -82 -43 -6 0 -10 -4 -10 -8 0 -4 -12 -13 -27 -20
-16 -7 -46 -23 -68 -36 -195 -114 -340 -196 -347 -196 -4 0 -8 -4 -8 -9 0 -5
-11 -12 -25 -15 -14 -4 -25 -11 -25 -16 0 -6 -4 -10 -9 -10 -5 0 -54 -25 -108
-56 -54 -31 -111 -64 -128 -72 -16 -8 -44 -25 -61 -38 -16 -12 -46 -29 -65
-38 -19 -9 -47 -24 -64 -35 -16 -10 -91 -53 -165 -96 -174 -100 -172 -99 -325
-187 -71 -42 -146 -84 -165 -94 -19 -11 -37 -21 -40 -24 -10 -10 -65 -41 -82
-47 -10 -3 -18 -9 -18 -14 0 -5 -9 -9 -20 -9 -11 0 -20 -4 -20 -8 0 -5 -12
-15 -27 -22 -53 -27 -188 -104 -193 -110 -3 -4 -9 -9 -15 -11 -11 -4 -166 -91
-221 -124 -57 -34 -117 -68 -156 -88 -21 -10 -38 -24 -38 -30 0 -6 -3 -8 -6
-4 -3 3 -41 -16 -84 -43 -43 -26 -81 -46 -84 -42 -3 3 -6 1 -6 -5 0 -6 -8 -13
-17 -16 -10 -4 -40 -20 -68 -37 -110 -67 -132 -75 -162 -59 -15 8 -30 16 -33
19 -3 3 -19 12 -35 21 -17 8 -106 60 -200 114 -93 54 -180 103 -192 109 -13 6
-23 14 -23 19 0 4 -5 7 -11 7 -7 0 -44 19 -83 42 -39 24 -89 52 -111 63 -22
11 -42 22 -45 26 -6 6 -56 36 -112 68 -67 37 -112 63 -143 82 -16 11 -37 22
-45 26 -8 4 -48 26 -88 50 -40 24 -77 43 -82 43 -6 0 -10 5 -10 10 0 6 -4 10
-10 10 -5 0 -33 14 -62 31 -63 38 -108 63 -168 97 -25 13 -52 31 -61 38 -8 8
-19 14 -23 14 -5 0 -49 24 -99 54 -51 29 -108 63 -127 73 -91 52 -267 154
-280 163 -8 6 -22 13 -30 17 -8 4 -31 17 -51 29 l-36 22 -1 1509 c0 829 -1
1518 -1 1531 -1 12 -6 22 -11 22 -6 0 -29 12 -52 26 -53 34 -241 142 -348 202
-25 13 -53 32 -64 41 -10 9 -20 15 -22 13 -2 -1 -14 4 -27 11 -49 30 -294 172
-346 200 -31 17 -58 33 -61 36 -3 3 -14 11 -25 17 -85 46 -149 83 -203 116
-34 21 -64 38 -66 38 -2 0 -65 36 -140 80 -76 44 -141 80 -146 80 -6 0 -10 5
-10 10 0 6 -5 10 -11 10 -6 0 -38 16 -70 36 -32 19 -61 34 -65 34 -4 -1 -10 3
-13 8 -3 5 -25 19 -48 31 -23 11 -45 25 -48 31 -4 6 -11 8 -16 5 -5 -4 -9 -2
-9 3 0 5 -8 12 -17 15 -10 4 -36 17 -58 31 -22 14 -62 37 -90 51 -27 15 -57
33 -65 40 -8 7 -25 16 -37 19 -11 4 -27 13 -33 21 -7 8 -16 15 -21 15 -5 0 -9
-1183 -9 -2758z"/>
<path d="M9550 7922 c-80 -47 -167 -98 -195 -114 -27 -16 -62 -34 -77 -41 -16
-6 -28 -14 -28 -17 0 -4 -22 -17 -50 -30 -27 -13 -50 -27 -50 -32 0 -4 -5 -8
-11 -8 -6 0 -37 -15 -68 -34 -31 -19 -72 -43 -91 -54 -65 -36 -297 -171 -331
-191 -19 -12 -45 -26 -59 -33 -14 -7 -27 -15 -30 -18 -3 -3 -14 -10 -25 -16
-48 -26 -113 -63 -145 -82 -19 -12 -48 -28 -65 -37 -16 -8 -43 -24 -60 -35
-16 -11 -39 -24 -50 -30 -11 -5 -42 -23 -70 -40 -27 -17 -72 -42 -100 -56 -27
-15 -57 -32 -65 -39 -8 -6 -44 -27 -80 -46 -36 -19 -67 -36 -70 -39 -5 -6 -47
-31 -132 -79 -21 -11 -53 -29 -70 -40 -18 -10 -49 -27 -68 -37 -19 -11 -37
-22 -40 -25 -3 -3 -12 -9 -20 -12 -8 -4 -36 -19 -61 -35 -26 -15 -84 -49 -130
-75 -46 -26 -106 -61 -134 -78 -27 -16 -61 -35 -75 -42 -14 -6 -27 -14 -30
-17 -3 -3 -26 -17 -52 -30 -27 -14 -48 -28 -48 -32 0 -5 -5 -8 -10 -8 -12 0
-216 -116 -241 -137 -8 -7 -23 -13 -32 -13 -9 0 -17 -4 -17 -10 0 -5 -11 -12
-25 -16 -14 -3 -25 -10 -25 -15 0 -5 -4 -9 -9 -9 -5 0 -67 -34 -136 -75 -70
-41 -131 -75 -135 -75 -4 0 -13 -7 -20 -15 -7 -9 -15 -13 -18 -10 -3 3 -19 -5
-36 -18 -17 -12 -42 -28 -56 -35 -14 -7 -41 -22 -60 -33 -123 -74 -220 -129
-226 -129 -4 0 -15 -6 -23 -14 -9 -7 -47 -31 -86 -51 -38 -21 -71 -42 -73 -47
-2 -4 -8 -8 -12 -8 -8 0 -135 -71 -235 -131 -16 -10 -45 -26 -63 -35 -18 -9
-35 -20 -38 -25 -2 -4 -20 1 -39 11 -19 11 -52 29 -72 41 -21 12 -42 25 -48
29 -11 9 -116 67 -152 84 -13 6 -23 14 -23 19 0 4 -4 7 -9 7 -5 0 -42 19 -83
43 -66 40 -130 76 -198 114 -14 8 -38 23 -55 33 -16 11 -37 23 -45 27 -8 4
-122 69 -252 145 -131 76 -240 138 -244 138 -3 0 -18 8 -32 19 -15 10 -44 28
-65 40 -20 11 -54 31 -75 42 -97 55 -127 74 -133 82 -3 5 -10 9 -15 9 -5 0
-39 18 -76 39 -36 21 -68 39 -71 39 -2 0 -3 -553 -3 -1230 l1 -1229 95 -57
c52 -30 118 -68 145 -83 58 -32 86 -49 210 -121 50 -29 106 -62 125 -72 19
-11 55 -32 80 -47 73 -42 92 -53 184 -106 120 -68 146 -83 258 -148 53 -32
101 -57 107 -57 5 0 11 -4 13 -8 2 -5 50 -35 108 -68 57 -32 112 -63 121 -69
53 -31 139 -80 174 -99 22 -11 42 -24 45 -28 5 -6 68 19 80 32 5 5 12 9 89 52
20 11 72 41 116 67 44 26 87 50 95 54 8 4 29 16 45 26 54 33 439 255 462 265
13 6 23 14 23 19 0 4 4 7 10 7 5 0 38 17 72 38 35 21 78 45 96 53 17 7 32 17
32 20 0 3 23 16 50 29 28 13 50 27 50 31 0 4 12 12 28 18 15 6 50 24 77 41 28
17 59 35 70 40 11 6 27 14 35 20 44 29 313 180 321 180 5 0 9 4 9 8 0 5 17 16
37 26 20 10 70 37 110 62 40 24 77 44 83 44 5 0 10 5 10 10 0 6 4 10 10 10 5
0 64 32 132 71 67 40 136 80 153 89 16 9 50 29 75 44 25 15 53 29 63 33 9 3
17 9 17 14 0 5 7 9 15 9 8 0 15 5 15 11 0 5 4 8 9 5 5 -3 19 2 32 12 31 22 60
40 79 49 8 4 80 45 160 91 80 47 165 96 190 110 25 14 62 36 82 49 21 12 39
23 42 23 2 0 34 18 70 40 36 22 70 40 76 40 5 0 10 3 10 8 0 4 10 12 23 18 35
16 139 75 167 94 14 9 32 20 40 23 8 4 33 18 55 32 22 13 49 29 60 35 11 5 41
22 67 37 50 30 186 108 273 158 29 17 74 43 101 59 27 15 69 40 93 54 25 13
67 38 93 53 27 16 53 29 58 29 6 0 10 3 10 8 0 4 14 13 30 20 22 10 30 21 31
40 3 101 1 2433 -2 2436 -2 1 -69 -35 -149 -82z"/>
</g>
</svg>
